<mxfile host="app.diagrams.net" modified="2022-06-15T03:09:42.981Z" agent="5.0 (X11; Linux x86_64) AppleWebKit/537.36 (KHTML, like Gecko) Chrome/89.0.4389.90 Safari/537.36" etag="Hmsccd4tHiB4xrRNCjl_" version="19.0.2" type="github">
  <diagram id="XTlzsOSv1tw_jqXcZtUm" name="Page-1">
    <mxGraphModel dx="665" dy="289" grid="1" gridSize="10" guides="1" tooltips="1" connect="1" arrows="1" fold="1" page="1" pageScale="1" pageWidth="827" pageHeight="1169" math="0" shadow="0">
      <root>
        <mxCell id="0" />
        <mxCell id="1" parent="0" />
        <mxCell id="WxwyEEQFFlaklBJ_KM64-1" value="" style="rounded=0;whiteSpace=wrap;html=1;" vertex="1" parent="1">
          <mxGeometry x="120" y="270" width="300" height="200" as="geometry" />
        </mxCell>
        <mxCell id="WxwyEEQFFlaklBJ_KM64-2" value="Process" style="text;html=1;align=center;verticalAlign=middle;resizable=0;points=[];autosize=1;strokeColor=none;fillColor=none;" vertex="1" parent="1">
          <mxGeometry x="240" y="270" width="60" height="20" as="geometry" />
        </mxCell>
        <mxCell id="WxwyEEQFFlaklBJ_KM64-3" value="thread1" style="rounded=0;whiteSpace=wrap;html=1;" vertex="1" parent="1">
          <mxGeometry x="130" y="290" width="50" height="50" as="geometry" />
        </mxCell>
        <mxCell id="WxwyEEQFFlaklBJ_KM64-4" value="thread2" style="rounded=0;whiteSpace=wrap;html=1;" vertex="1" parent="1">
          <mxGeometry x="210" y="290" width="50" height="50" as="geometry" />
        </mxCell>
        <mxCell id="WxwyEEQFFlaklBJ_KM64-5" value="thread3" style="rounded=0;whiteSpace=wrap;html=1;" vertex="1" parent="1">
          <mxGeometry x="284" y="290" width="50" height="50" as="geometry" />
        </mxCell>
        <mxCell id="WxwyEEQFFlaklBJ_KM64-6" value="thread4" style="rounded=0;whiteSpace=wrap;html=1;" vertex="1" parent="1">
          <mxGeometry x="360" y="290" width="50" height="50" as="geometry" />
        </mxCell>
        <mxCell id="WxwyEEQFFlaklBJ_KM64-7" value="localdata" style="rounded=0;whiteSpace=wrap;html=1;fillColor=#FFFFCC;" vertex="1" parent="1">
          <mxGeometry x="130" y="390" width="50" height="50" as="geometry" />
        </mxCell>
        <mxCell id="WxwyEEQFFlaklBJ_KM64-8" value="localdata" style="rounded=0;whiteSpace=wrap;html=1;fillColor=#FFFFCC;" vertex="1" parent="1">
          <mxGeometry x="210" y="390" width="50" height="50" as="geometry" />
        </mxCell>
        <mxCell id="WxwyEEQFFlaklBJ_KM64-9" value="localdata" style="rounded=0;whiteSpace=wrap;html=1;fillColor=#FFFFCC;" vertex="1" parent="1">
          <mxGeometry x="284" y="390" width="50" height="50" as="geometry" />
        </mxCell>
        <mxCell id="WxwyEEQFFlaklBJ_KM64-10" value="localdata" style="rounded=0;whiteSpace=wrap;html=1;fillColor=#FFFFCC;" vertex="1" parent="1">
          <mxGeometry x="360" y="390" width="50" height="50" as="geometry" />
        </mxCell>
        <mxCell id="WxwyEEQFFlaklBJ_KM64-11" value="" style="shape=flexArrow;endArrow=classic;startArrow=classic;html=1;rounded=0;endWidth=5.161290322580645;endSize=5.946774193548387;width=2.258064516129032;startSize=7.225806451612902;startWidth=5.161290322580645;" edge="1" parent="1">
          <mxGeometry width="100" height="100" relative="1" as="geometry">
            <mxPoint x="154.86" y="390" as="sourcePoint" />
            <mxPoint x="154.86" y="340" as="targetPoint" />
          </mxGeometry>
        </mxCell>
        <mxCell id="WxwyEEQFFlaklBJ_KM64-13" value="" style="shape=flexArrow;endArrow=classic;startArrow=classic;html=1;rounded=0;endWidth=5.161290322580645;endSize=5.946774193548387;width=2.258064516129032;startSize=7.225806451612902;startWidth=5.161290322580645;" edge="1" parent="1">
          <mxGeometry width="100" height="100" relative="1" as="geometry">
            <mxPoint x="235" y="390" as="sourcePoint" />
            <mxPoint x="235" y="340" as="targetPoint" />
          </mxGeometry>
        </mxCell>
        <mxCell id="WxwyEEQFFlaklBJ_KM64-14" value="" style="shape=flexArrow;endArrow=classic;startArrow=classic;html=1;rounded=0;endWidth=5.161290322580645;endSize=5.946774193548387;width=2.258064516129032;startSize=7.225806451612902;startWidth=5.161290322580645;" edge="1" parent="1">
          <mxGeometry width="100" height="100" relative="1" as="geometry">
            <mxPoint x="308.8600000000001" y="390" as="sourcePoint" />
            <mxPoint x="308.8600000000001" y="340" as="targetPoint" />
          </mxGeometry>
        </mxCell>
        <mxCell id="WxwyEEQFFlaklBJ_KM64-15" value="" style="shape=flexArrow;endArrow=classic;startArrow=classic;html=1;rounded=0;endWidth=5.161290322580645;endSize=5.946774193548387;width=2.258064516129032;startSize=7.225806451612902;startWidth=5.161290322580645;" edge="1" parent="1">
          <mxGeometry width="100" height="100" relative="1" as="geometry">
            <mxPoint x="384.8600000000001" y="390" as="sourcePoint" />
            <mxPoint x="384.8600000000001" y="340" as="targetPoint" />
          </mxGeometry>
        </mxCell>
        <mxCell id="WxwyEEQFFlaklBJ_KM64-16" value="" style="endArrow=classic;startArrow=classic;html=1;rounded=0;" edge="1" parent="1">
          <mxGeometry width="50" height="50" relative="1" as="geometry">
            <mxPoint x="180" y="414.83" as="sourcePoint" />
            <mxPoint x="210" y="414.83" as="targetPoint" />
          </mxGeometry>
        </mxCell>
        <mxCell id="WxwyEEQFFlaklBJ_KM64-17" value="" style="endArrow=classic;startArrow=classic;html=1;rounded=0;entryX=0;entryY=0.5;entryDx=0;entryDy=0;" edge="1" parent="1" target="WxwyEEQFFlaklBJ_KM64-9">
          <mxGeometry width="50" height="50" relative="1" as="geometry">
            <mxPoint x="260" y="414.8299999999999" as="sourcePoint" />
            <mxPoint x="290" y="414.8299999999999" as="targetPoint" />
          </mxGeometry>
        </mxCell>
        <mxCell id="WxwyEEQFFlaklBJ_KM64-18" value="" style="endArrow=classic;startArrow=classic;html=1;rounded=0;entryX=0;entryY=0.5;entryDx=0;entryDy=0;" edge="1" parent="1">
          <mxGeometry width="50" height="50" relative="1" as="geometry">
            <mxPoint x="336.0000000000001" y="414.8599999999999" as="sourcePoint" />
            <mxPoint x="360" y="415.03" as="targetPoint" />
          </mxGeometry>
        </mxCell>
        <mxCell id="WxwyEEQFFlaklBJ_KM64-19" value="" style="endArrow=classic;startArrow=classic;html=1;rounded=0;exitX=0.5;exitY=1;exitDx=0;exitDy=0;entryX=0.5;entryY=1;entryDx=0;entryDy=0;" edge="1" parent="1" source="WxwyEEQFFlaklBJ_KM64-7" target="WxwyEEQFFlaklBJ_KM64-8">
          <mxGeometry width="50" height="50" relative="1" as="geometry">
            <mxPoint x="300" y="410" as="sourcePoint" />
            <mxPoint x="350" y="360" as="targetPoint" />
            <Array as="points">
              <mxPoint x="200" y="460" />
            </Array>
          </mxGeometry>
        </mxCell>
        <mxCell id="WxwyEEQFFlaklBJ_KM64-20" value="" style="endArrow=classic;startArrow=classic;html=1;rounded=0;entryX=0.5;entryY=1;entryDx=0;entryDy=0;" edge="1" parent="1" target="WxwyEEQFFlaklBJ_KM64-9">
          <mxGeometry width="50" height="50" relative="1" as="geometry">
            <mxPoint x="160" y="440" as="sourcePoint" />
            <mxPoint x="245.0000000000001" y="450" as="targetPoint" />
            <Array as="points">
              <mxPoint x="210" y="460" />
            </Array>
          </mxGeometry>
        </mxCell>
        <mxCell id="WxwyEEQFFlaklBJ_KM64-21" value="" style="endArrow=classic;startArrow=classic;html=1;rounded=0;entryX=0.5;entryY=1;entryDx=0;entryDy=0;" edge="1" parent="1" target="WxwyEEQFFlaklBJ_KM64-10">
          <mxGeometry width="50" height="50" relative="1" as="geometry">
            <mxPoint x="160" y="440" as="sourcePoint" />
            <mxPoint x="319" y="450" as="targetPoint" />
            <Array as="points">
              <mxPoint x="230" y="460" />
            </Array>
          </mxGeometry>
        </mxCell>
      </root>
    </mxGraphModel>
  </diagram>
</mxfile>
